<?xml version="1.0" standalone="no"?><!DOCTYPE svg PUBLIC "-//W3C//DTD SVG 1.1//EN" "http://www.w3.org/Graphics/SVG/1.1/DTD/svg11.dtd"><svg t="1762579883516" class="icon" viewBox="0 0 1024 1024" version="1.1" xmlns="http://www.w3.org/2000/svg" p-id="8353" xmlns:xlink="http://www.w3.org/1999/xlink" width="200" height="200"><path d="M940.2 475.2c9.8 6.5 16.3 19.5 19.6 32.5 0 13-6.6 26-19.6 32.5L528.3 761.3c-3.3 3.2-9.8 3.2-16.3 3.2s-9.8 0-16.3-3.2L87.1 540.2c-12.2-6.2-19.8-18.8-19.6-32.5 0-13 6.5-26 19.6-32.5l85-42.3h6.5l58.8 32.5c3.3 0 3.3 3.2 3.3 6.5 0 3.2 0 6.5-3.3 6.5l-58.8 32.5L512 686.5l336.7-178.8-55.6-29.3s-3.3-3.2-3.3-6.5c0-3.2 0-6.5 3.3-6.5l58.8-32.5h6.5l81.8 42.3zM83.8 338.6c-9.8-6.5-19.6-19.5-16.3-32.5 0-13 6.5-26 19.6-32.5L499 68.8c9.8-6.5 22.9-6.5 32.7 0L937 273.6c13.1 6.5 19.6 19.5 19.6 32.5s-6.5 26-19.6 32.5L525.1 559.7c-3.3 3.2-9.8 3.2-16.3 3.2s-9.8 0-16.3-3.2L83.8 338.6zM936.9 667c13.1 6.5 19.6 19.5 19.6 32.5 0 9.7-6.5 22.8-16.3 29.2 0 3.2-3.3 3.2-3.3 3.2L525.1 956.3c-3.3 3.2-9.8 3.2-16.3 3.2s-9.8 0-16.3-3.2L83.8 735.2C71.6 729 64 716.4 64.2 702.7c0-13 6.5-26 19.6-32.5l81.7-35.7h6.5l58.8 32.5c3.3 0 3.3 3.2 3.3 6.5 0 3.2 0 6.5-3.3 6.5l-52.3 22.8 326.8 175.5L842 699.5l-49-26s-3.3-3.2-3.3-6.5 0-6.5 3.3-6.5l59-32.5h6.5l78.4 39z" p-id="8354"></path></svg>