<?xml version="1.0" standalone="no"?>
<!DOCTYPE svg PUBLIC "-//W3C//DTD SVG 1.1//EN" "http://www.w3.org/Graphics/SVG/1.1/DTD/svg11.dtd">
<svg t="1762579841591" class="icon" viewBox="120 80 784 864" version="1.1" xmlns="http://www.w3.org/2000/svg" p-id="7363" xmlns:xlink="http://www.w3.org/1999/xlink" width="200" height="200">
    <path d="M478.85 702.31c11.55 0 19.37-7.69 19.37-19.37s-7.68-19.37-19.37-19.37H326.17c-11.55 0-19.37 7.68-19.37 19.37s7.68 19.37 19.37 19.37zM326.24 470.42h282.18c11.55 0 19.37-7.68 19.37-19.37s-7.68-19.37-19.37-19.37H326.24c-11.56 0-19.37 7.68-19.37 19.37s7.75 19.37 19.37 19.37zM326.24 354.41h282.18c11.55 0 19.37-7.69 19.37-19.37s-7.68-19.37-19.37-19.37H326.24c-11.56 0-19.37 7.68-19.37 19.37s7.75 19.37 19.37 19.37zM506 547.69H326.24c-11.56 0-19.37 7.68-19.37 19.37s7.68 19.37 19.37 19.37H506c11.55 0 19.36-7.68 19.36-19.37A19.44 19.44 0 0 0 506 547.69z" p-id="7364">

    </path>
    <path d="M480.85 788h-205.7a50.3 50.3 0 0 1-50.83-50.82V259c0-27.51 23.31-50.82 50.83-50.82h413.28A50.27 50.27 0 0 1 739.26 259v200.3a19.37 19.37 0 0 1-38.74 0V259a12 12 0 0 0-12.22-12.22H275.15c-6 0-12.23 6.15-12.23 12.22v478.17a12 12 0 0 0 12.23 12.22h205.7a19.3 19.3 0 1 1 0 38.6z" p-id="7365">

    </path>
    <path d="M797.27 628l-18.36-0.65s-6.53-16.88-8.85-21.15l13.13-11.71a19.13 19.13 0 0 0 0-26.44l-17.65-17.64a19.11 19.11 0 0 0-26.44 0L725 564.45c-7.07-3.51-14.08-7.07-21.15-8.8v-19.37a17.67 17.67 0 0 0-17.64-17.64h-24.7a17.67 17.67 0 0 0-17.65 17.64v19.37c-7.07 1.79-14.08 5.29-21.15 8.8l-12.36-14.08a19.11 19.11 0 0 0-26.44 0l-17.71 17.7a19.13 19.13 0 0 0 0 26.44l14.09 14.08c-3.51 7.07-7.07 14.08-8.8 21.15h-19.37a17.68 17.68 0 0 0-17.64 17.65v24.66a17.68 17.68 0 0 0 17.64 17.65h19.37c1.78 7.07 5.29 14.08 8.8 21.15l-14.09 14.08a19.13 19.13 0 0 0 0 26.44L583.85 769a19.13 19.13 0 0 0 26.44 0l14.08-14.09c7.07 3.51 14.08 7.07 21.15 8.8v19.39a17.68 17.68 0 0 0 17.65 17.64h24.66a17.67 17.67 0 0 0 17.64-17.64v-19.37c7.08-1.78 14.09-5.29 21.16-8.8L740.71 769a19.13 19.13 0 0 0 26.44 0l17.65-17.65a19.13 19.13 0 0 0 0-26.44l-14.09-14.08c3.51-7.07 7.07-14.08 8.8-21.15h19.37a17.68 17.68 0 0 0 17.64-17.65v-24.64A19.39 19.39 0 0 0 797.27 628z m-121.68 81.07c-26.44 0-49.38-22.94-49.38-49.38s22.94-49.37 49.38-49.37S725 633.25 725 659.69s-23 49.38-49.41 49.38z" p-id="7366">

    </path>
</svg>