<?xml version="1.0" standalone="no"?><!DOCTYPE svg PUBLIC "-//W3C//DTD SVG 1.1//EN" "http://www.w3.org/Graphics/SVG/1.1/DTD/svg11.dtd"><svg t="1762579771672" class="icon" viewBox="0 0 1024 1024" version="1.1" xmlns="http://www.w3.org/2000/svg" p-id="6263" xmlns:xlink="http://www.w3.org/1999/xlink" width="200" height="200"><path d="M470.016 754.688l50.176-42.496 145.408 134.656 6.144-8.704c135.168-193.024 302.08-328.192 344.576-361.472l7.168 21.504c-196.096 192.512-303.616 418.816-328.704 475.136l-224.768-218.624zM0 853.504v-82.432h128.512v82.432H0z m233.984-0.512v-81.92h150.528v81.92H233.984zM0 488.96V406.528h128.512v82.432H0z m233.984-0.512v-81.92H803.84v81.92H233.984z m0-364.544V43.52H803.84v80.384H233.984zM0 123.904V43.008h128.512v80.896H0z" fill="#666666" p-id="6264"></path></svg>